<svg xmlns="http://www.w3.org/2000/svg" xmlns:xlink="http://www.w3.org/1999/xlink" width="500" zoomAndPan="magnify" viewBox="0 0 375 374.999991" height="500" preserveAspectRatio="xMidYMid meet" version="1.0"><defs><g/></defs><g fill="#000000" fill-opacity="1"><g transform="translate(107.167967, 208.549995)"><g><path d="M 15.09375 0 L 2.96875 0 L 2.96875 -34.1875 L 15.1875 -34.1875 C 18.625 -34.1875 21.585938 -33.503906 24.078125 -32.140625 C 26.566406 -30.773438 28.476562 -28.816406 29.8125 -26.265625 C 31.144531 -23.722656 31.8125 -20.675781 31.8125 -17.125 C 31.8125 -13.5625 31.140625 -10.5 29.796875 -7.9375 C 28.460938 -5.382812 26.546875 -3.421875 24.046875 -2.046875 C 21.546875 -0.679688 18.5625 0 15.09375 0 Z M 10.203125 -6.1875 L 14.78125 -6.1875 C 18 -6.1875 20.4375 -7.054688 22.09375 -8.796875 C 23.757812 -10.535156 24.59375 -13.3125 24.59375 -17.125 C 24.59375 -20.914062 23.757812 -23.671875 22.09375 -25.390625 C 20.4375 -27.117188 18.003906 -27.984375 14.796875 -27.984375 L 10.203125 -27.984375 Z M 10.203125 -6.1875 "/></g></g></g><g fill="#000000" fill-opacity="1"><g transform="translate(141.344234, 208.549995)"><g><path d="M 7.890625 0 L 0.921875 -25.640625 L 8.109375 -25.640625 L 12.078125 -8.40625 L 12.3125 -8.40625 L 16.453125 -25.640625 L 23.515625 -25.640625 L 27.71875 -8.515625 L 27.9375 -8.515625 L 31.84375 -25.640625 L 39.015625 -25.640625 L 32.0625 0 L 24.53125 0 L 20.125 -16.125 L 19.8125 -16.125 L 15.40625 0 Z M 7.890625 0 "/></g></g></g><g fill="#000000" fill-opacity="1"><g transform="translate(181.294423, 208.549995)"><g><path d="M 14.515625 0.5 C 11.890625 0.5 9.625 -0.0351562 7.71875 -1.109375 C 5.820312 -2.179688 4.359375 -3.703125 3.328125 -5.671875 C 2.304688 -7.648438 1.796875 -9.992188 1.796875 -12.703125 C 1.796875 -15.335938 2.304688 -17.648438 3.328125 -19.640625 C 4.359375 -21.628906 5.804688 -23.179688 7.671875 -24.296875 C 9.535156 -25.410156 11.722656 -25.96875 14.234375 -25.96875 C 16.492188 -25.96875 18.53125 -25.488281 20.34375 -24.53125 C 22.164062 -23.570312 23.609375 -22.128906 24.671875 -20.203125 C 25.742188 -18.273438 26.28125 -15.859375 26.28125 -12.953125 L 26.28125 -11 L 8.828125 -11 L 8.828125 -10.984375 C 8.828125 -9.066406 9.347656 -7.554688 10.390625 -6.453125 C 11.441406 -5.359375 12.859375 -4.8125 14.640625 -4.8125 C 15.828125 -4.8125 16.851562 -5.0625 17.71875 -5.5625 C 18.59375 -6.0625 19.207031 -6.800781 19.5625 -7.78125 L 26.140625 -7.34375 C 25.640625 -4.957031 24.367188 -3.050781 22.328125 -1.625 C 20.296875 -0.207031 17.691406 0.5 14.515625 0.5 Z M 8.828125 -15.40625 L 19.59375 -15.40625 C 19.582031 -16.925781 19.09375 -18.179688 18.125 -19.171875 C 17.15625 -20.160156 15.898438 -20.65625 14.359375 -20.65625 C 12.773438 -20.65625 11.476562 -20.144531 10.46875 -19.125 C 9.457031 -18.101562 8.910156 -16.863281 8.828125 -15.40625 Z M 8.828125 -15.40625 "/></g></g></g><g fill="#000000" fill-opacity="1"><g transform="translate(209.37971, 208.549995)"><g><path d="M 9.953125 -14.828125 L 9.953125 0 L 2.84375 0 L 2.84375 -25.640625 L 9.609375 -25.640625 L 9.609375 -21.109375 L 9.90625 -21.109375 C 10.488281 -22.597656 11.441406 -23.78125 12.765625 -24.65625 C 14.097656 -25.53125 15.71875 -25.96875 17.625 -25.96875 C 20.289062 -25.96875 22.429688 -25.109375 24.046875 -23.390625 C 25.660156 -21.671875 26.46875 -19.316406 26.46875 -16.328125 L 26.46875 0 L 19.359375 0 L 19.359375 -15.046875 C 19.367188 -16.617188 18.96875 -17.847656 18.15625 -18.734375 C 17.34375 -19.617188 16.222656 -20.0625 14.796875 -20.0625 C 13.367188 -20.0625 12.207031 -19.601562 11.3125 -18.6875 C 10.414062 -17.769531 9.960938 -16.484375 9.953125 -14.828125 Z M 9.953125 -14.828125 "/></g></g></g><g fill="#000000" fill-opacity="1"><g transform="translate(238.599748, 208.549995)"><g><path d="M 9.953125 -14.828125 L 9.953125 0 L 2.84375 0 L 2.84375 -25.640625 L 9.609375 -25.640625 L 9.609375 -21.109375 L 9.90625 -21.109375 C 10.488281 -22.597656 11.441406 -23.78125 12.765625 -24.65625 C 14.097656 -25.53125 15.71875 -25.96875 17.625 -25.96875 C 20.289062 -25.96875 22.429688 -25.109375 24.046875 -23.390625 C 25.660156 -21.671875 26.46875 -19.316406 26.46875 -16.328125 L 26.46875 0 L 19.359375 0 L 19.359375 -15.046875 C 19.367188 -16.617188 18.96875 -17.847656 18.15625 -18.734375 C 17.34375 -19.617188 16.222656 -20.0625 14.796875 -20.0625 C 13.367188 -20.0625 12.207031 -19.601562 11.3125 -18.6875 C 10.414062 -17.769531 9.960938 -16.484375 9.953125 -14.828125 Z M 9.953125 -14.828125 "/></g></g></g></svg>